<mxfile host="app.diagrams.net" modified="2023-06-08T13:59:18.291Z" agent="Mozilla/5.0 (X11; Ubuntu; Linux x86_64; rv:109.0) Gecko/20100101 Firefox/113.0" version="21.3.4" etag="1w_sFhPC0Vyp_zzpD_vG" type="github">
  <diagram name="Pagina-1" id="WEIXGsba5oYrV0iFf7vT">
    <mxGraphModel>
      <root>
        <mxCell id="0" />
        <mxCell id="1" parent="0" />
      </root>
    </mxGraphModel>
  </diagram>
</mxfile>
